<?xml version="1.0" encoding="utf-8"?>
<!-- Generator: Adobe Illustrator 24.1.2, SVG Export Plug-In . SVG Version: 6.00 Build 0)  -->
<svg version="1.1" id="Layer_1" xmlns="http://www.w3.org/2000/svg" xmlns:xlink="http://www.w3.org/1999/xlink" x="0px" y="0px"
	 viewBox="0 0 275 230.8" style="enable-background:new 0 0 275 230.8;" xml:space="preserve">
<style type="text/css">
	.st0{fill:none;stroke:#707070;}
	.st1{fill:#D3951F;}
	.st2{font-family:'HelveticaNeue-Bold';}
	.st3{font-size:18px;}
	.st4{fill:none;stroke:#C38E00;stroke-dasharray:5;}
	.st5{font-size:25px;}
</style>
<g id="Group_37" transform="translate(-1010 -1815.914)">
	<g id="Group_20" transform="translate(1029 1903.307)">
		<g id="Group_9" transform="translate(0 0)">
			<path id="Path_11" class="st0" d="M13.9-3.2v105.4h240.6"/>
			<text transform="matrix(6.123234e-17 -1 1 6.123234e-17 -1.5 74.9565)" class="st1 st2 st3">activity</text>
			<text transform="matrix(1 0 0 1 116.5 136.5333)" class="st1 st2 st3">Time</text>
		</g>
		<path id="Path_19" class="st4" d="M34.7,52.2c0,0,23.8-21.6,48-17.4s39.7,25,46.6,23.8s29.8-17,39.9-15.4s20.7,25.6,34.6,22.5
			c13.9-3.1,33.6-45.5,39.4-45.5"/>
	</g>
	<text transform="matrix(1 0 0 1 1079.675 1836.7543)" class="st1 st2 st5">  Buying and </text>
	<text transform="matrix(1 0 0 1 1079.675 1866.7543)" class="st1 st2 st5">selling activity</text>
</g>
</svg>
