<svg xmlns="http://www.w3.org/2000/svg" width="189.721" height="131.202" viewBox="0 0 189.721 131.202">
  <g id="Group_5" data-name="Group 5" transform="translate(-849.047 -534.047)">
    <path id="Icon_awesome-twitter" data-name="Icon awesome-twitter" d="M56.448,12.735c.04.559.04,1.118.04,1.677C56.488,31.457,43.513,51.1,19.8,51.1A36.438,36.438,0,0,1,0,45.31a26.675,26.675,0,0,0,3.114.16,25.824,25.824,0,0,0,16.008-5.509A12.917,12.917,0,0,1,7.066,31.018a16.261,16.261,0,0,0,2.435.2,13.637,13.637,0,0,0,3.393-.439A12.9,12.9,0,0,1,2.555,18.124v-.16A12.986,12.986,0,0,0,8.383,19.6,12.914,12.914,0,0,1,4.391,2.355,36.652,36.652,0,0,0,30.978,15.848a14.556,14.556,0,0,1-.319-2.954A12.907,12.907,0,0,1,52.974,4.072,25.387,25.387,0,0,0,61.158.958a12.86,12.86,0,0,1-5.669,7.106,25.849,25.849,0,0,0,7.425-2,27.718,27.718,0,0,1-6.467,6.667Z" transform="translate(896.083 537.86) rotate(67)" fill="#209fe2"/>
    <path id="Icon_awesome-twitter-2" data-name="Icon awesome-twitter" d="M31.9,21.679c.023-.316.023-.632.023-.948C31.921,11.1,24.589,0,11.189,0A20.591,20.591,0,0,0,0,3.271a15.074,15.074,0,0,1,1.76-.09,14.593,14.593,0,0,1,9.046,3.113,7.3,7.3,0,0,0-6.813,5.053,9.189,9.189,0,0,1,1.376-.113,7.706,7.706,0,0,1,1.917.248,7.288,7.288,0,0,0-5.843,7.151v.09A7.338,7.338,0,0,1,4.737,17.8a7.3,7.3,0,0,0-2.256,9.745A20.712,20.712,0,0,1,17.506,19.92a8.226,8.226,0,0,0-.18,1.669,7.293,7.293,0,0,0,12.61,4.986,14.346,14.346,0,0,1,4.625,1.76,7.267,7.267,0,0,0-3.2-4.015,14.607,14.607,0,0,1,4.2,1.128A15.663,15.663,0,0,0,31.9,21.679Z" transform="matrix(-0.391, 0.921, -0.921, -0.391, 1002.972, 545.33)" fill="#209fe2"/>
    <path id="Icon_awesome-twitter-3" data-name="Icon awesome-twitter" d="M26.875,18.265c.019-.266.019-.532.019-.8C26.894,9.351,20.717,0,9.427,0A17.349,17.349,0,0,0,0,2.756,12.7,12.7,0,0,1,1.483,2.68,12.3,12.3,0,0,1,9.1,5.3,6.15,6.15,0,0,0,3.364,9.56a7.742,7.742,0,0,1,1.159-.1,6.493,6.493,0,0,1,1.616.209A6.14,6.14,0,0,0,1.216,15.7v.076A6.183,6.183,0,0,1,3.991,15a6.148,6.148,0,0,0-1.9,8.211,17.45,17.45,0,0,1,12.658-6.424,6.93,6.93,0,0,0-.152,1.406,6.145,6.145,0,0,0,10.625,4.2,12.087,12.087,0,0,1,3.9,1.483,6.123,6.123,0,0,0-2.7-3.383,12.307,12.307,0,0,1,3.535.95,13.2,13.2,0,0,0-3.079-3.174Z" transform="matrix(-0.829, 0.559, -0.559, -0.829, 1038.768, 619.449)" fill="#209fe2"/>
    <path id="Icon_ionic-logo-bitcoin" data-name="Icon ionic-logo-bitcoin" d="M70.354,52.243a12.123,12.123,0,0,0-5.683-6.087,19.848,19.848,0,0,0-5.137-2.022,12.583,12.583,0,0,0,3.3-2.225A11.4,11.4,0,0,0,65.985,37.2a15.594,15.594,0,0,0,.708-5.7c-.222-3.4-.89-6.694-2.67-9.06a16.676,16.676,0,0,0-7.6-5.46,28.557,28.557,0,0,0-9.2-1.8V2.25H39.128V15.193H32.657V2.25H24.365V15.193H6.75V24.9h5.642a9.128,9.128,0,0,1,3.559.465,2.674,2.674,0,0,1,1.315,1.213,9.728,9.728,0,0,1,.384,3.539V65.146a9.742,9.742,0,0,1-.384,3.519c-.263.526-.4.991-1.031,1.274s-.647.263-2.386.263H8.509L6.75,79.909H24.345V92.852h8.292V79.909h6.472V92.852H47.2V79.828A39.544,39.544,0,0,0,59.21,77.745a19.727,19.727,0,0,0,9.04-6.37c2.144-2.791,3.013-7.058,3.2-10.355C71.587,58.088,71.264,54.306,70.354,52.243ZM32.636,26.114h6.472V41.08H32.636Zm0,42.874v-18.2h6.472v18.2ZM47.2,26.9a7.084,7.084,0,0,1,2.791,2.568A7.182,7.182,0,0,1,51.3,33.8a6.692,6.692,0,0,1-1.517,4.146A6.5,6.5,0,0,1,47.2,40.19ZM53.022,64.66a12.27,12.27,0,0,1-4.469,2.791,11.338,11.338,0,0,1-1.355.384V51.09a8.239,8.239,0,0,1,2.285.688,9.091,9.091,0,0,1,4,2.67,8.862,8.862,0,0,1,1.618,5A6.4,6.4,0,0,1,53.022,64.66Z" transform="translate(921.373 572.397)" fill="#fdce31"/>
  </g>
</svg>
