<svg xmlns="http://www.w3.org/2000/svg" xmlns:xlink="http://www.w3.org/1999/xlink" width="1200" height="331.5" viewBox="0 0 1200 331.5">
  <defs>
    <clipPath id="clip-path">
      <circle id="Ellipse_6" data-name="Ellipse 6" cx="28.5" cy="28.5" r="28.5" transform="translate(827 437)" fill="none" stroke="#707070" stroke-width="5"/>
    </clipPath>
  </defs>
  <g id="Group_30" data-name="Group 30" transform="translate(-290 -317)">
    <g id="Group_21" data-name="Group 21" transform="translate(216 -38)" style="isolation: isolate">
      <g id="Ellipse_3" data-name="Ellipse 3" transform="translate(827 437)" fill="none" stroke="#707070" stroke-width="1">
        <circle cx="28.5" cy="28.5" r="28.5" stroke="none"/>
        <circle cx="28.5" cy="28.5" r="28" fill="none"/>
      </g>
    </g>
    <g id="Mask_Group_3" data-name="Mask Group 3" transform="translate(193 79)" clip-path="url(#clip-path)" style="isolation: isolate">
      <g id="test" transform="translate(428 71.3)">
        <path id="Path_41" data-name="Path 41" d="M564,0" transform="translate(250 450)" fill="none" stroke="#1369a3" stroke-width="2"/>
      </g>
      <g id="Ellipse_5" data-name="Ellipse 5" transform="translate(827 437)" fill="none" stroke="#707070" stroke-width="1">
        <circle cx="28.5" cy="28.5" r="28.5" stroke="none"/>
        <circle cx="28.5" cy="28.5" r="28" fill="none"/>
      </g>
    </g>
    <line id="Line_5" data-name="Line 5" x2="83" transform="translate(711.5 593.5)" fill="none" stroke="#707070" stroke-width="1" stroke-dasharray="1 2"/>
    <g id="Group_7" data-name="Group 7" transform="translate(1117.233 530.129)">
      <g id="Group_6" data-name="Group 6" transform="translate(0)">
        <g id="Rectangle_5" data-name="Rectangle 5" transform="translate(-23.233 -0.129)" fill="#fff" stroke="#d1d1d1" stroke-width="1">
          <rect width="396" height="29" rx="5" stroke="none"/>
          <rect x="0.5" y="0.5" width="395" height="28" rx="4.5" fill="none"/>
        </g>
        <text id="Weight_-_either_the_amount_of_followers_retweets_likes_or_comments" data-name="Weight - either the amount of followers, retweets, likes or comments" transform="translate(174.767 17.871)" fill="#707070" font-size="10" font-family="Roboto-Regular, Roboto"><tspan x="-187.563" y="0">WEIGHT - EITHER THE AMOUNT OF FOLLOWERS, RETWEETS, LIKES OR COMMENTS</tspan></text>
      </g>
    </g>
    <g id="Group_9" data-name="Group 9" transform="translate(521 579.152)">
      <g id="Group_6-2" data-name="Group 6" transform="translate(0 -0.152)">
        <g id="Rectangle_5-2" data-name="Rectangle 5" fill="#fff" stroke="#d1d1d1" stroke-width="1">
          <rect width="190" height="29" rx="5" stroke="none"/>
          <rect x="0.5" y="0.5" width="189" height="28" rx="4.5" fill="none"/>
        </g>
        <text id="The_total_of_all_of_the_weights" data-name="The total of all of the weights" transform="translate(11 18)" fill="#707070" font-size="10" font-family="Roboto-Regular, Roboto"><tspan x="0" y="0">THE TOTAL OF ALL OF THE WEIGHTS</tspan></text>
      </g>
    </g>
    <g id="Group_10" data-name="Group 10" transform="translate(1114.704 410.64)">
      <g id="Rectangle_5-3" data-name="Rectangle 5" transform="translate(0.296 0.36)" fill="#fff" stroke="#d1d1d1" stroke-width="1">
        <rect width="193" height="29" rx="5" stroke="none"/>
        <rect x="0.5" y="0.5" width="192" height="28" rx="4.5" fill="none"/>
      </g>
      <text id="Sentiment_-_a_number_from_-1_to_1" data-name="Sentiment - a number from -1 to 1" transform="translate(10.296 17.36)" fill="#707070" font-size="10" font-family="Roboto-Regular, Roboto"><tspan x="0" y="0">SENTIMENT - A NUMBER FROM -1 TO 1</tspan></text>
    </g>
    <line id="Line_6" data-name="Line 6" x2="152" y2="78" transform="translate(868.5 466.5)" fill="none" stroke="#707070" stroke-width="1" stroke-dasharray="1 2"/>
    <line id="Line_7" data-name="Line 7" y1="16" x2="94" transform="translate(949.5 427.5)" fill="none" stroke="#707070" stroke-width="1" stroke-dasharray="1 2"/>
    <line id="Line_8" data-name="Line 8" y1="64" x2="77" transform="translate(888.5 363.5)" fill="none" stroke="#707070" stroke-width="1" stroke-dasharray="1 2"/>
    <g id="weighted-average" transform="translate(635.197 3170.739)">
      <path id="Path_21" data-name="Path 21" d="M35.865-434.218a10.928,10.928,0,0,1,2.747-4.934,7.62,7.62,0,0,1,5.9-2.848,6.052,6.052,0,0,1,3.255.916,5.877,5.877,0,0,1,2.187,2.289q2.136-3.2,5.137-3.2a4.994,4.994,0,0,1,3.255,1.119,3.814,3.814,0,0,1,1.424,3,3.784,3.784,0,0,1-.712,2.391,3.028,3.028,0,0,1-1.373,1.119,4.042,4.042,0,0,1-1.17.2,2.242,2.242,0,0,1-1.577-.559,1.906,1.906,0,0,1-.61-1.475,3.234,3.234,0,0,1,2.543-3.2,2.568,2.568,0,0,0-2.035-.661,3.323,3.323,0,0,0-.966.1,5.326,5.326,0,0,0-2.848,3.357q-3.052,11.241-3.052,13.123a2.38,2.38,0,0,0,.814,2.035,2.9,2.9,0,0,0,1.78.61,5.517,5.517,0,0,0,3.713-1.678,8.48,8.48,0,0,0,2.492-4.12q.153-.509.305-.559a4.833,4.833,0,0,1,.814-.1h.2q.763,0,.763.407,0,.051-.1.56A11.237,11.237,0,0,1,55.6-421.2a7.631,7.631,0,0,1-5.442,2.238,5.86,5.86,0,0,1-5.392-3.2q-2.085,3.154-4.781,3.154h-.305a4.323,4.323,0,0,1-3.56-1.322,4.652,4.652,0,0,1-1.119-2.8,3.682,3.682,0,0,1,.966-2.645,3.054,3.054,0,0,1,2.289-1.017,1.911,1.911,0,0,1,2.187,2.136,2.766,2.766,0,0,1-.61,1.78,3.425,3.425,0,0,1-1.17,1.017A2.988,2.988,0,0,1,38-421.6l-.153.051q0,.051.305.2t.814.356a1.994,1.994,0,0,0,.966.153q1.831,0,3.154-2.289a18.133,18.133,0,0,0,1.17-3.459q.712-2.645,1.424-5.493t.814-3.357a12.4,12.4,0,0,0,.254-1.984,2.458,2.458,0,0,0-.763-2.035,2.694,2.694,0,0,0-1.729-.61,5.574,5.574,0,0,0-3.815,1.628,8.681,8.681,0,0,0-2.492,4.171q-.1.458-.254.509a4.839,4.839,0,0,1-.814.1H36.17A.847.847,0,0,1,35.865-434.218Z" transform="translate(0 -2218.833)" stroke="#000"/>
      <path id="Path_22" data-name="Path 22" d="M69-587.66V-590H87.362v2.34Z" transform="translate(-29.066 -2078.716)" stroke="#000"/>
      <path id="Path_23" data-name="Path 23" d="M56-365.983A1.108,1.108,0,0,1,56.712-367h32.4a1.183,1.183,0,0,1,.763,1.017,1.154,1.154,0,0,1-.712.966l-16.175.051H56.814A1.008,1.008,0,0,1,56-365.983Zm0,9.868a1.008,1.008,0,0,1,.814-1.017h32.35q.712.509.712,1.017a1.112,1.112,0,0,1-.763,1.017h-32.4A1.108,1.108,0,0,1,56-356.115Z" transform="translate(23.303 -2290.018)" stroke="#000"/>
      <g id="Group_20" data-name="Group 20" transform="translate(136.27 -2779.739)">
        <g id="Group_19" data-name="Group 19" transform="translate(0 0)">
          <rect id="Rectangle_6" data-name="Rectangle 6" width="189.548" height="3.052" transform="translate(-16 127.147)"/>
          <g id="Group_15" data-name="Group 15" transform="translate(3.807)">
            <path id="Path_24" data-name="Path 24" d="M56.254-749.9q.153-.1,21.77-.1H99.59l2.085,5.6q.56,1.577,1.119,3.1t.865,2.34q.305.814.305.865h-1.017l-1.017-.051a12.437,12.437,0,0,0-3.713-5.29,16.371,16.371,0,0,0-5.544-3.1,24.935,24.935,0,0,0-6.205-1.17q-3.51-.254-11.139-.254H69.377q-6.918,0-6.918.051.153.153,8.393,11.444t8.291,11.444q.305.458.1.763l-1.17,1.424q-1.221,1.424-3.56,4.171t-4.578,5.442L60.73-702.34q0,.051,10.834.051h3.764q2.441,0,3.56.051a54.88,54.88,0,0,0,13.835-1.373,13.574,13.574,0,0,0,8.037-6.053,16.175,16.175,0,0,0,1.17-2.492h2.035l-4.374,12.97-21.566.051q-21.566,0-21.719-.1A.432.432,0,0,1,56-699.7a32.02,32.02,0,0,1,3.154-3.967q3.459-4.069,6.46-7.63l9.308-11.037q0-.051-9.461-13.021l-9.41-12.97L56-748.881Q56-749.695,56.254-749.9Z" transform="translate(-51.567 776.08)" stroke="#000"/>
            <g id="Group_12" data-name="Group 12" transform="translate(0 85.547)">
              <path id="Path_25" data-name="Path 25" d="M20.709-465.133a2.019,2.019,0,0,1,.683-1.51,2.377,2.377,0,0,1,1.582-.683,1.464,1.464,0,0,1,1.079.432,1.6,1.6,0,0,1,.467,1.079,2.051,2.051,0,0,1-.719,1.51,2.406,2.406,0,0,1-1.582.719,1.62,1.62,0,0,1-1.007-.36A1.492,1.492,0,0,1,20.709-465.133Zm-5.862,11.256a3.934,3.934,0,0,1,.324-1.115,17.264,17.264,0,0,1,.863-1.834,5.936,5.936,0,0,1,1.582-1.834,3.259,3.259,0,0,1,2.158-.791,3.4,3.4,0,0,1,2.337.827,2.934,2.934,0,0,1,.971,2.23,6.972,6.972,0,0,1-.5,2.014q-.5,1.4-1.438,3.776t-1.51,4.064a5.891,5.891,0,0,0-.18,1.151q0,.9.611.9a2.38,2.38,0,0,0,.683-.108,2.458,2.458,0,0,0,.827-.5,4.874,4.874,0,0,0,.971-1.259,10.448,10.448,0,0,0,.9-2.122,1.478,1.478,0,0,1,.18-.5,1.318,1.318,0,0,1,.611-.072q.719,0,.719.36a3.935,3.935,0,0,1-.324,1.115,14.156,14.156,0,0,1-.9,1.834,6.005,6.005,0,0,1-1.618,1.8,3.623,3.623,0,0,1-2.23.791,3.381,3.381,0,0,1-2.122-.755,2.823,2.823,0,0,1-1.007-2.3,3.615,3.615,0,0,1,.18-1.151q.18-.539,1.546-4.1,1.367-3.632,1.582-4.351a5.967,5.967,0,0,0,.252-1.4q0-.863-.611-.863H19.63a2.514,2.514,0,0,0-1.978,1.187,8.379,8.379,0,0,0-1.367,3.021.417.417,0,0,0-.072.108.276.276,0,0,0-.036.108q0,.036-.072.072a.276.276,0,0,1-.108.036h-.935Q14.847-453.77,14.847-453.878Z" transform="translate(-14.847 467.507)" stroke="#000"/>
              <path id="Path_26" data-name="Path 26" d="M39.592-258.75a.783.783,0,0,1,.5-.719H63a.836.836,0,0,1,.539.719.816.816,0,0,1-.5.683l-11.436.036H40.167A.713.713,0,0,1,39.592-258.75Zm0,6.976a.713.713,0,0,1,.575-.719H63.038q.5.36.5.719a.786.786,0,0,1-.539.719H40.1A.783.783,0,0,1,39.592-251.773Z" transform="translate(-25.927 270.221)" stroke="#000"/>
              <path id="Path_27" data-name="Path 27" d="M63.356-467.7l-.467.18a10.3,10.3,0,0,1-1.438.36,16.575,16.575,0,0,1-2.086.252h-.683v-1.654h.683a11.7,11.7,0,0,0,3.129-.539,8.492,8.492,0,0,0,2.014-.863,9.22,9.22,0,0,0,1.007-.791q.072-.108.432-.108a1,1,0,0,1,.611.216v10.752l.036,10.788a1.425,1.425,0,0,0,.432.324,4.265,4.265,0,0,0,.863.144q.683.072,2.23.072h.935v1.654h-.4q-.755-.108-5.718-.108-4.891,0-5.646.108h-.432v-1.654h2.3a8.632,8.632,0,0,0,.9-.036,3.52,3.52,0,0,0,.575-.108,2.151,2.151,0,0,1,.288-.072q.036,0,.216-.18t.216-.144Z" transform="translate(-16.031 470.862)" stroke="#000"/>
            </g>
            <path id="Path_28" data-name="Path 28" d="M14.847-306.955q.036-.216.108-.575a12.16,12.16,0,0,1,.432-1.367,13.241,13.241,0,0,1,.719-1.69,4.283,4.283,0,0,1,1.187-1.331,2.5,2.5,0,0,1,1.654-.611,3.5,3.5,0,0,1,2.158.647,3.027,3.027,0,0,1,1.079,1.223,2.892,2.892,0,0,1,.216.755q0,.072.036.072l.4-.4a6.739,6.739,0,0,1,5-2.3,4.786,4.786,0,0,1,3.129.971,3.552,3.552,0,0,1,1.223,2.841,17.261,17.261,0,0,1-1.367,5.646,19.269,19.269,0,0,0-1.367,4.567q0,.935.611.935a1.09,1.09,0,0,0,.324-.036,2.948,2.948,0,0,0,1.87-1.366,8.789,8.789,0,0,0,1.259-2.877q.072-.288.719-.288.719,0,.719.288,0,.036-.144.539a11.293,11.293,0,0,1-.791,2.05,6.81,6.81,0,0,1-1.654,2.014,3.549,3.549,0,0,1-2.481.971,2.907,2.907,0,0,1-2.445-.971,3.243,3.243,0,0,1-.755-2.014,22.657,22.657,0,0,1,1.295-4.315,19.29,19.29,0,0,0,1.331-5.466q0-2.122-1.582-2.122h-.18q-3.093,0-5.214,3.632l-.252.432-1.187,4.819q-1.187,4.711-1.367,5.07a1.6,1.6,0,0,1-1.546.971,1.227,1.227,0,0,1-.755-.216,1.3,1.3,0,0,1-.4-.432.537.537,0,0,1-.072-.36q0-.467,1.367-5.862t1.438-5.862a5.622,5.622,0,0,0,.036-.827q0-1.4-.863-1.4-1.367,0-2.266,3.6-.216.719-.216.755-.072.216-.683.216h-.5Q14.847-306.848,14.847-306.955Z" transform="translate(3.529 312.531)" stroke="#000"/>
            <g id="Group_13" data-name="Group 13" transform="translate(67.199 41.695)">
              <path id="Path_29" data-name="Path 29" d="M49.433-440.05a2.709,2.709,0,0,1,.966-1.984A3.259,3.259,0,0,1,52.536-443a2.182,2.182,0,0,1,1.679.916,4.69,4.69,0,0,1,.814,2.9,34.247,34.247,0,0,1-.966,5.849q-.763,2.848-1.373,4.68a30.224,30.224,0,0,1-1.78,4.12,9.432,9.432,0,0,1-2.8,3.459,6.123,6.123,0,0,1-3.662,1.17,9.216,9.216,0,0,1-3.967-.814,5.314,5.314,0,0,1-2.492-2.187,1.516,1.516,0,0,0-.153.2,6.175,6.175,0,0,1-5.086,2.8,10.449,10.449,0,0,1-2.543-.305,9.562,9.562,0,0,1-2.391-.966,4.843,4.843,0,0,1-1.882-1.984,6.678,6.678,0,0,1-.712-3.2,22.975,22.975,0,0,1,1.729-7.426,27.872,27.872,0,0,0,1.78-5.951v-.712a.558.558,0,0,0-.2-.356.756.756,0,0,0-.56-.2h-.2a2.966,2.966,0,0,0-2.136.966,8.027,8.027,0,0,0-1.526,2.085,13.446,13.446,0,0,0-.865,2.136,4.957,4.957,0,0,1-.407,1.119,1.684,1.684,0,0,1-.814.1h-.712q-.305-.305-.305-.458a5.97,5.97,0,0,1,.407-1.424,22.584,22.584,0,0,1,1.17-2.594,8.187,8.187,0,0,1,2.238-2.645,5.186,5.186,0,0,1,3.306-1.17,4.333,4.333,0,0,1,3.357,1.272,4.224,4.224,0,0,1,1.17,2.95,27.19,27.19,0,0,1-1.679,5.493,22.448,22.448,0,0,0-1.679,7.07,4.3,4.3,0,0,0,1.068,3.306,4.065,4.065,0,0,0,2.7,1.017q2.187,0,3.866-3.1l.254-.458v-1.628a1.058,1.058,0,0,1,.051-.407.873.873,0,0,0,.051-.356,1.891,1.891,0,0,1,.051-.458q.051-.2.153-.661t.153-.865a7.785,7.785,0,0,1,.305-1.221,14.273,14.273,0,0,0,.407-1.628q.153-.814.56-2.187,1.475-5.8,1.679-6.256a2.258,2.258,0,0,1,2.187-1.373,1.51,1.51,0,0,1,1.322.509,2.122,2.122,0,0,1,.407.966,63.893,63.893,0,0,1-1.475,6.511q-1.475,5.849-1.628,6.714a11.048,11.048,0,0,0-.1,1.78v.356a7.022,7.022,0,0,0,.153,1.475,2.989,2.989,0,0,0,.966,1.475,3.4,3.4,0,0,0,2.289.814q3.611,0,5.748-6.205a31.411,31.411,0,0,0,1.017-3.306,17.9,17.9,0,0,0,.61-3.052A4.625,4.625,0,0,0,51.417-437a11.412,11.412,0,0,0-1.322-1.628A1.993,1.993,0,0,1,49.433-440.05Z" transform="translate(-21 443)" stroke="#000"/>
              <path id="Path_30" data-name="Path 30" d="M20.709-465.133a2.019,2.019,0,0,1,.683-1.51,2.377,2.377,0,0,1,1.582-.683,1.464,1.464,0,0,1,1.079.432,1.6,1.6,0,0,1,.467,1.079,2.051,2.051,0,0,1-.719,1.51,2.406,2.406,0,0,1-1.582.719,1.62,1.62,0,0,1-1.007-.36A1.492,1.492,0,0,1,20.709-465.133Zm-5.862,11.256a3.934,3.934,0,0,1,.324-1.115,17.264,17.264,0,0,1,.863-1.834,5.936,5.936,0,0,1,1.582-1.834,3.259,3.259,0,0,1,2.158-.791,3.4,3.4,0,0,1,2.337.827,2.934,2.934,0,0,1,.971,2.23,6.972,6.972,0,0,1-.5,2.014q-.5,1.4-1.438,3.776t-1.51,4.064a5.891,5.891,0,0,0-.18,1.151q0,.9.611.9a2.38,2.38,0,0,0,.683-.108,2.458,2.458,0,0,0,.827-.5,4.874,4.874,0,0,0,.971-1.259,10.448,10.448,0,0,0,.9-2.122,1.478,1.478,0,0,1,.18-.5,1.318,1.318,0,0,1,.611-.072q.719,0,.719.36a3.935,3.935,0,0,1-.324,1.115,14.156,14.156,0,0,1-.9,1.834,6.005,6.005,0,0,1-1.618,1.8,3.623,3.623,0,0,1-2.23.791,3.381,3.381,0,0,1-2.122-.755,2.823,2.823,0,0,1-1.007-2.3,3.615,3.615,0,0,1,.18-1.151q.18-.539,1.546-4.1,1.367-3.632,1.582-4.351a5.967,5.967,0,0,0,.252-1.4q0-.863-.611-.863H19.63a2.514,2.514,0,0,0-1.978,1.187,8.379,8.379,0,0,0-1.367,3.021.417.417,0,0,0-.072.108.276.276,0,0,0-.036.108q0,.036-.072.072a.276.276,0,0,1-.108.036h-.935Q14.847-453.77,14.847-453.878Z" transform="translate(21.268 473.749)" stroke="#000"/>
            </g>
            <g id="Group_14" data-name="Group 14" transform="translate(121.878 41.746)">
              <path id="Path_31" data-name="Path 31" d="M35.865-434.218a10.928,10.928,0,0,1,2.747-4.934,7.62,7.62,0,0,1,5.9-2.848,6.052,6.052,0,0,1,3.255.916,5.877,5.877,0,0,1,2.187,2.289q2.136-3.2,5.137-3.2a4.994,4.994,0,0,1,3.255,1.119,3.814,3.814,0,0,1,1.424,3,3.784,3.784,0,0,1-.712,2.391,3.028,3.028,0,0,1-1.373,1.119,4.042,4.042,0,0,1-1.17.2,2.242,2.242,0,0,1-1.577-.559,1.906,1.906,0,0,1-.61-1.475,3.234,3.234,0,0,1,2.543-3.2,2.568,2.568,0,0,0-2.035-.661,3.323,3.323,0,0,0-.966.1,5.326,5.326,0,0,0-2.848,3.357q-3.052,11.241-3.052,13.123a2.38,2.38,0,0,0,.814,2.035,2.9,2.9,0,0,0,1.78.61,5.517,5.517,0,0,0,3.713-1.678,8.48,8.48,0,0,0,2.492-4.12q.153-.509.305-.559a4.833,4.833,0,0,1,.814-.1h.2q.763,0,.763.407,0,.051-.1.56A11.237,11.237,0,0,1,55.6-421.2a7.631,7.631,0,0,1-5.442,2.238,5.86,5.86,0,0,1-5.392-3.2q-2.085,3.154-4.781,3.154h-.305a4.323,4.323,0,0,1-3.56-1.322,4.652,4.652,0,0,1-1.119-2.8,3.682,3.682,0,0,1,.966-2.645,3.054,3.054,0,0,1,2.289-1.017,1.911,1.911,0,0,1,2.187,2.136,2.766,2.766,0,0,1-.61,1.78,3.425,3.425,0,0,1-1.17,1.017A2.988,2.988,0,0,1,38-421.6l-.153.051q0,.051.305.2t.814.356a1.994,1.994,0,0,0,.966.153q1.831,0,3.154-2.289a18.133,18.133,0,0,0,1.17-3.459q.712-2.645,1.424-5.493t.814-3.357a12.4,12.4,0,0,0,.254-1.984,2.458,2.458,0,0,0-.763-2.035,2.694,2.694,0,0,0-1.729-.61,5.574,5.574,0,0,0-3.815,1.628,8.681,8.681,0,0,0-2.492,4.171q-.1.458-.254.509a4.839,4.839,0,0,1-.814.1H36.17A.847.847,0,0,1,35.865-434.218Z" transform="translate(-35 442)" stroke="#000"/>
              <path id="Path_32" data-name="Path 32" d="M20.709-465.133a2.019,2.019,0,0,1,.683-1.51,2.377,2.377,0,0,1,1.582-.683,1.464,1.464,0,0,1,1.079.432,1.6,1.6,0,0,1,.467,1.079,2.051,2.051,0,0,1-.719,1.51,2.406,2.406,0,0,1-1.582.719,1.62,1.62,0,0,1-1.007-.36A1.492,1.492,0,0,1,20.709-465.133Zm-5.862,11.256a3.934,3.934,0,0,1,.324-1.115,17.264,17.264,0,0,1,.863-1.834,5.936,5.936,0,0,1,1.582-1.834,3.259,3.259,0,0,1,2.158-.791,3.4,3.4,0,0,1,2.337.827,2.934,2.934,0,0,1,.971,2.23,6.972,6.972,0,0,1-.5,2.014q-.5,1.4-1.438,3.776t-1.51,4.064a5.891,5.891,0,0,0-.18,1.151q0,.9.611.9a2.38,2.38,0,0,0,.683-.108,2.458,2.458,0,0,0,.827-.5,4.874,4.874,0,0,0,.971-1.259,10.448,10.448,0,0,0,.9-2.122,1.478,1.478,0,0,1,.18-.5,1.318,1.318,0,0,1,.611-.072q.719,0,.719.36a3.935,3.935,0,0,1-.324,1.115,14.156,14.156,0,0,1-.9,1.834,6.005,6.005,0,0,1-1.618,1.8,3.623,3.623,0,0,1-2.23.791,3.381,3.381,0,0,1-2.122-.755,2.823,2.823,0,0,1-1.007-2.3,3.615,3.615,0,0,1,.18-1.151q.18-.539,1.546-4.1,1.367-3.632,1.582-4.351a5.967,5.967,0,0,0,.252-1.4q0-.863-.611-.863H19.63a2.514,2.514,0,0,0-1.978,1.187,8.379,8.379,0,0,0-1.367,3.021.417.417,0,0,0-.072.108.276.276,0,0,0-.036.108q0,.036-.072.072a.276.276,0,0,1-.108.036h-.935Q14.847-453.77,14.847-453.878Z" transform="translate(13.22 473.698)" stroke="#000"/>
            </g>
            <g id="Group_23" data-name="Group 23" transform="translate(253.329 143)">
              <path id="Path_29-2" data-name="Path 29" d="M44.04-440.609a2.2,2.2,0,0,1,.783-1.607A2.641,2.641,0,0,1,46.554-443a1.768,1.768,0,0,1,1.36.742,3.8,3.8,0,0,1,.659,2.349,27.751,27.751,0,0,1-.783,4.74q-.618,2.308-1.113,3.792a24.49,24.49,0,0,1-1.443,3.339,7.643,7.643,0,0,1-2.267,2.8,4.962,4.962,0,0,1-2.968.948,7.467,7.467,0,0,1-3.215-.659,4.306,4.306,0,0,1-2.02-1.772,1.228,1.228,0,0,0-.124.165,5,5,0,0,1-4.122,2.267,8.466,8.466,0,0,1-2.061-.247,7.748,7.748,0,0,1-1.937-.783A3.924,3.924,0,0,1,25-426.926a5.411,5.411,0,0,1-.577-2.6,18.617,18.617,0,0,1,1.4-6.018,22.586,22.586,0,0,0,1.443-4.822v-.577a.452.452,0,0,0-.165-.289.613.613,0,0,0-.453-.165h-.165a2.4,2.4,0,0,0-1.731.783,6.5,6.5,0,0,0-1.236,1.69,10.9,10.9,0,0,0-.7,1.731,4.018,4.018,0,0,1-.33.907,1.365,1.365,0,0,1-.659.082h-.577Q21-436.447,21-436.57a4.837,4.837,0,0,1,.33-1.154,18.3,18.3,0,0,1,.948-2.1,6.634,6.634,0,0,1,1.813-2.143,4.2,4.2,0,0,1,2.679-.948,3.511,3.511,0,0,1,2.72,1.03,3.423,3.423,0,0,1,.948,2.391,22.033,22.033,0,0,1-1.36,4.451,18.19,18.19,0,0,0-1.36,5.729,3.483,3.483,0,0,0,.866,2.679,3.294,3.294,0,0,0,2.184.824q1.772,0,3.132-2.514l.206-.371v-1.319a.857.857,0,0,1,.041-.33.708.708,0,0,0,.041-.289,1.532,1.532,0,0,1,.041-.371q.041-.165.124-.536t.124-.7a6.309,6.309,0,0,1,.247-.989,11.566,11.566,0,0,0,.33-1.319q.124-.659.453-1.772,1.2-4.7,1.36-5.07a1.83,1.83,0,0,1,1.772-1.113,1.223,1.223,0,0,1,1.072.412,1.72,1.72,0,0,1,.33.783,51.773,51.773,0,0,1-1.2,5.276q-1.2,4.74-1.319,5.441a8.953,8.953,0,0,0-.082,1.443v.289a5.69,5.69,0,0,0,.124,1.2,2.422,2.422,0,0,0,.783,1.2,2.754,2.754,0,0,0,1.855.659q2.926,0,4.657-5.028a25.455,25.455,0,0,0,.824-2.679,14.5,14.5,0,0,0,.495-2.473,3.748,3.748,0,0,0-.536-2.143,9.248,9.248,0,0,0-1.072-1.319A1.615,1.615,0,0,1,44.04-440.609Z" transform="translate(-21 443)"/>
              <path id="Path_30-2" data-name="Path 30" d="M19.6-465.549a1.636,1.636,0,0,1,.554-1.224,1.926,1.926,0,0,1,1.282-.554,1.186,1.186,0,0,1,.874.35,1.293,1.293,0,0,1,.379.874,1.662,1.662,0,0,1-.583,1.224,1.95,1.95,0,0,1-1.282.583,1.312,1.312,0,0,1-.816-.291A1.209,1.209,0,0,1,19.6-465.549Zm-4.75,9.121a3.188,3.188,0,0,1,.262-.9,13.991,13.991,0,0,1,.7-1.486,4.81,4.81,0,0,1,1.282-1.486,2.641,2.641,0,0,1,1.748-.641,2.754,2.754,0,0,1,1.894.67,2.378,2.378,0,0,1,.787,1.807,5.65,5.65,0,0,1-.408,1.632q-.408,1.136-1.166,3.06t-1.224,3.293a4.774,4.774,0,0,0-.146.932q0,.728.5.728a1.928,1.928,0,0,0,.554-.087,1.992,1.992,0,0,0,.67-.408,3.95,3.95,0,0,0,.787-1.02,8.466,8.466,0,0,0,.728-1.719,1.2,1.2,0,0,1,.146-.408,1.068,1.068,0,0,1,.5-.058q.583,0,.583.291a3.188,3.188,0,0,1-.262.9,11.469,11.469,0,0,1-.728,1.486,4.866,4.866,0,0,1-1.311,1.457,2.936,2.936,0,0,1-1.807.641,2.74,2.74,0,0,1-1.719-.612,2.288,2.288,0,0,1-.816-1.865,2.929,2.929,0,0,1,.146-.932q.146-.437,1.253-3.322Q18.9-457.42,19.072-458a4.835,4.835,0,0,0,.2-1.136q0-.7-.5-.7h-.058a2.037,2.037,0,0,0-1.6.962,6.789,6.789,0,0,0-1.107,2.448.338.338,0,0,0-.058.087.224.224,0,0,0-.029.087q0,.029-.058.058a.223.223,0,0,1-.087.029h-.758Q14.847-456.341,14.847-456.429Z" transform="translate(14.418 472.531)"/>
            </g>
          </g>
          <g id="Group_18" data-name="Group 18" transform="translate(27.103 147.607)">
            <path id="Path_33" data-name="Path 33" d="M56.254-749.9q.153-.1,21.77-.1H99.59l2.085,5.6q.56,1.577,1.119,3.1t.865,2.34q.305.814.305.865h-1.017l-1.017-.051a12.437,12.437,0,0,0-3.713-5.29,16.371,16.371,0,0,0-5.544-3.1,24.935,24.935,0,0,0-6.205-1.17q-3.51-.254-11.139-.254H69.377q-6.918,0-6.918.051.153.153,8.393,11.444t8.291,11.444q.305.458.1.763l-1.17,1.424q-1.221,1.424-3.56,4.171t-4.578,5.442L60.73-702.34q0,.051,10.834.051h3.764q2.441,0,3.56.051a54.88,54.88,0,0,0,13.835-1.373,13.574,13.574,0,0,0,8.037-6.053,16.175,16.175,0,0,0,1.17-2.492h2.035l-4.374,12.97-21.566.051q-21.566,0-21.719-.1A.432.432,0,0,1,56-699.7a32.02,32.02,0,0,1,3.154-3.967q3.459-4.069,6.46-7.63l9.308-11.037q0-.051-9.461-13.021l-9.41-12.97L56-748.881Q56-749.695,56.254-749.9Z" transform="translate(-51.567 776.08)" stroke="#000"/>
            <g id="Group_16" data-name="Group 16" transform="translate(0 85.547)">
              <path id="Path_34" data-name="Path 34" d="M20.709-465.133a2.019,2.019,0,0,1,.683-1.51,2.377,2.377,0,0,1,1.582-.683,1.464,1.464,0,0,1,1.079.432,1.6,1.6,0,0,1,.467,1.079,2.051,2.051,0,0,1-.719,1.51,2.406,2.406,0,0,1-1.582.719,1.62,1.62,0,0,1-1.007-.36A1.492,1.492,0,0,1,20.709-465.133Zm-5.862,11.256a3.934,3.934,0,0,1,.324-1.115,17.264,17.264,0,0,1,.863-1.834,5.936,5.936,0,0,1,1.582-1.834,3.259,3.259,0,0,1,2.158-.791,3.4,3.4,0,0,1,2.337.827,2.934,2.934,0,0,1,.971,2.23,6.972,6.972,0,0,1-.5,2.014q-.5,1.4-1.438,3.776t-1.51,4.064a5.891,5.891,0,0,0-.18,1.151q0,.9.611.9a2.38,2.38,0,0,0,.683-.108,2.458,2.458,0,0,0,.827-.5,4.874,4.874,0,0,0,.971-1.259,10.448,10.448,0,0,0,.9-2.122,1.478,1.478,0,0,1,.18-.5,1.318,1.318,0,0,1,.611-.072q.719,0,.719.36a3.935,3.935,0,0,1-.324,1.115,14.156,14.156,0,0,1-.9,1.834,6.005,6.005,0,0,1-1.618,1.8,3.623,3.623,0,0,1-2.23.791,3.381,3.381,0,0,1-2.122-.755,2.823,2.823,0,0,1-1.007-2.3,3.615,3.615,0,0,1,.18-1.151q.18-.539,1.546-4.1,1.367-3.632,1.582-4.351a5.967,5.967,0,0,0,.252-1.4q0-.863-.611-.863H19.63a2.514,2.514,0,0,0-1.978,1.187,8.379,8.379,0,0,0-1.367,3.021.417.417,0,0,0-.072.108.276.276,0,0,0-.036.108q0,.036-.072.072a.276.276,0,0,1-.108.036h-.935Q14.847-453.77,14.847-453.878Z" transform="translate(-14.847 467.507)" stroke="#000"/>
              <path id="Path_35" data-name="Path 35" d="M39.592-258.75a.783.783,0,0,1,.5-.719H63a.836.836,0,0,1,.539.719.816.816,0,0,1-.5.683l-11.436.036H40.167A.713.713,0,0,1,39.592-258.75Zm0,6.976a.713.713,0,0,1,.575-.719H63.038q.5.36.5.719a.786.786,0,0,1-.539.719H40.1A.783.783,0,0,1,39.592-251.773Z" transform="translate(-25.927 270.221)" stroke="#000"/>
              <path id="Path_36" data-name="Path 36" d="M63.356-467.7l-.467.18a10.3,10.3,0,0,1-1.438.36,16.575,16.575,0,0,1-2.086.252h-.683v-1.654h.683a11.7,11.7,0,0,0,3.129-.539,8.492,8.492,0,0,0,2.014-.863,9.22,9.22,0,0,0,1.007-.791q.072-.108.432-.108a1,1,0,0,1,.611.216v10.752l.036,10.788a1.425,1.425,0,0,0,.432.324,4.265,4.265,0,0,0,.863.144q.683.072,2.23.072h.935v1.654h-.4q-.755-.108-5.718-.108-4.891,0-5.646.108h-.432v-1.654h2.3a8.632,8.632,0,0,0,.9-.036,3.52,3.52,0,0,0,.575-.108,2.151,2.151,0,0,1,.288-.072q.036,0,.216-.18t.216-.144Z" transform="translate(-16.031 470.862)" stroke="#000"/>
            </g>
            <path id="Path_37" data-name="Path 37" d="M14.847-306.955q.036-.216.108-.575a12.16,12.16,0,0,1,.432-1.367,13.241,13.241,0,0,1,.719-1.69,4.283,4.283,0,0,1,1.187-1.331,2.5,2.5,0,0,1,1.654-.611,3.5,3.5,0,0,1,2.158.647,3.027,3.027,0,0,1,1.079,1.223,2.892,2.892,0,0,1,.216.755q0,.072.036.072l.4-.4a6.739,6.739,0,0,1,5-2.3,4.786,4.786,0,0,1,3.129.971,3.552,3.552,0,0,1,1.223,2.841,17.261,17.261,0,0,1-1.367,5.646,19.269,19.269,0,0,0-1.367,4.567q0,.935.611.935a1.09,1.09,0,0,0,.324-.036,2.948,2.948,0,0,0,1.87-1.366,8.789,8.789,0,0,0,1.259-2.877q.072-.288.719-.288.719,0,.719.288,0,.036-.144.539a11.293,11.293,0,0,1-.791,2.05,6.81,6.81,0,0,1-1.654,2.014,3.549,3.549,0,0,1-2.481.971,2.907,2.907,0,0,1-2.445-.971,3.243,3.243,0,0,1-.755-2.014,22.657,22.657,0,0,1,1.295-4.315,19.29,19.29,0,0,0,1.331-5.466q0-2.122-1.582-2.122h-.18q-3.093,0-5.214,3.632l-.252.432-1.187,4.819q-1.187,4.711-1.367,5.07a1.6,1.6,0,0,1-1.546.971,1.227,1.227,0,0,1-.755-.216,1.3,1.3,0,0,1-.4-.432.537.537,0,0,1-.072-.36q0-.467,1.367-5.862t1.438-5.862a5.622,5.622,0,0,0,.036-.827q0-1.4-.863-1.4-1.367,0-2.266,3.6-.216.719-.216.755-.072.216-.683.216h-.5Q14.847-306.848,14.847-306.955Z" transform="translate(3.529 312.531)" stroke="#000"/>
            <g id="Group_17" data-name="Group 17" transform="translate(67.199 41.695)">
              <path id="Path_38" data-name="Path 38" d="M49.433-440.05a2.709,2.709,0,0,1,.966-1.984A3.259,3.259,0,0,1,52.536-443a2.182,2.182,0,0,1,1.679.916,4.69,4.69,0,0,1,.814,2.9,34.247,34.247,0,0,1-.966,5.849q-.763,2.848-1.373,4.68a30.224,30.224,0,0,1-1.78,4.12,9.432,9.432,0,0,1-2.8,3.459,6.123,6.123,0,0,1-3.662,1.17,9.216,9.216,0,0,1-3.967-.814,5.314,5.314,0,0,1-2.492-2.187,1.516,1.516,0,0,0-.153.2,6.175,6.175,0,0,1-5.086,2.8,10.449,10.449,0,0,1-2.543-.305,9.562,9.562,0,0,1-2.391-.966,4.843,4.843,0,0,1-1.882-1.984,6.678,6.678,0,0,1-.712-3.2,22.975,22.975,0,0,1,1.729-7.426,27.872,27.872,0,0,0,1.78-5.951v-.712a.558.558,0,0,0-.2-.356.756.756,0,0,0-.56-.2h-.2a2.966,2.966,0,0,0-2.136.966,8.027,8.027,0,0,0-1.526,2.085,13.446,13.446,0,0,0-.865,2.136,4.957,4.957,0,0,1-.407,1.119,1.684,1.684,0,0,1-.814.1h-.712q-.305-.305-.305-.458a5.97,5.97,0,0,1,.407-1.424,22.584,22.584,0,0,1,1.17-2.594,8.187,8.187,0,0,1,2.238-2.645,5.186,5.186,0,0,1,3.306-1.17,4.333,4.333,0,0,1,3.357,1.272,4.224,4.224,0,0,1,1.17,2.95,27.19,27.19,0,0,1-1.679,5.493,22.448,22.448,0,0,0-1.679,7.07,4.3,4.3,0,0,0,1.068,3.306,4.065,4.065,0,0,0,2.7,1.017q2.187,0,3.866-3.1l.254-.458v-1.628a1.058,1.058,0,0,1,.051-.407.873.873,0,0,0,.051-.356,1.891,1.891,0,0,1,.051-.458q.051-.2.153-.661t.153-.865a7.785,7.785,0,0,1,.305-1.221,14.273,14.273,0,0,0,.407-1.628q.153-.814.56-2.187,1.475-5.8,1.679-6.256a2.258,2.258,0,0,1,2.187-1.373,1.51,1.51,0,0,1,1.322.509,2.122,2.122,0,0,1,.407.966,63.893,63.893,0,0,1-1.475,6.511q-1.475,5.849-1.628,6.714a11.048,11.048,0,0,0-.1,1.78v.356a7.022,7.022,0,0,0,.153,1.475,2.989,2.989,0,0,0,.966,1.475,3.4,3.4,0,0,0,2.289.814q3.611,0,5.748-6.205a31.411,31.411,0,0,0,1.017-3.306,17.9,17.9,0,0,0,.61-3.052A4.625,4.625,0,0,0,51.417-437a11.412,11.412,0,0,0-1.322-1.628A1.993,1.993,0,0,1,49.433-440.05Z" transform="translate(-21 443)" stroke="#000"/>
              <path id="Path_39" data-name="Path 39" d="M20.709-465.133a2.019,2.019,0,0,1,.683-1.51,2.377,2.377,0,0,1,1.582-.683,1.464,1.464,0,0,1,1.079.432,1.6,1.6,0,0,1,.467,1.079,2.051,2.051,0,0,1-.719,1.51,2.406,2.406,0,0,1-1.582.719,1.62,1.62,0,0,1-1.007-.36A1.492,1.492,0,0,1,20.709-465.133Zm-5.862,11.256a3.934,3.934,0,0,1,.324-1.115,17.264,17.264,0,0,1,.863-1.834,5.936,5.936,0,0,1,1.582-1.834,3.259,3.259,0,0,1,2.158-.791,3.4,3.4,0,0,1,2.337.827,2.934,2.934,0,0,1,.971,2.23,6.972,6.972,0,0,1-.5,2.014q-.5,1.4-1.438,3.776t-1.51,4.064a5.891,5.891,0,0,0-.18,1.151q0,.9.611.9a2.38,2.38,0,0,0,.683-.108,2.458,2.458,0,0,0,.827-.5,4.874,4.874,0,0,0,.971-1.259,10.448,10.448,0,0,0,.9-2.122,1.478,1.478,0,0,1,.18-.5,1.318,1.318,0,0,1,.611-.072q.719,0,.719.36a3.935,3.935,0,0,1-.324,1.115,14.156,14.156,0,0,1-.9,1.834,6.005,6.005,0,0,1-1.618,1.8,3.623,3.623,0,0,1-2.23.791,3.381,3.381,0,0,1-2.122-.755,2.823,2.823,0,0,1-1.007-2.3,3.615,3.615,0,0,1,.18-1.151q.18-.539,1.546-4.1,1.367-3.632,1.582-4.351a5.967,5.967,0,0,0,.252-1.4q0-.863-.611-.863H19.63a2.514,2.514,0,0,0-1.978,1.187,8.379,8.379,0,0,0-1.367,3.021.417.417,0,0,0-.072.108.276.276,0,0,0-.036.108q0,.036-.072.072a.276.276,0,0,1-.108.036h-.935Q14.847-453.77,14.847-453.878Z" transform="translate(21.268 473.749)" stroke="#000"/>
            </g>
          </g>
        </g>
      </g>
      <path id="Path_40" data-name="Path 40" d="M78-125.349v-1.272l.814-2.187Q79.628-131,81-129.724a3.325,3.325,0,0,1,2.543,1.272q1.119,1.272,1.17,4.476a13.086,13.086,0,0,1-.458,3.459,15.813,15.813,0,0,1-1.068,2.9,11.031,11.031,0,0,1-1.322,2.085q-.712.865-1.221,1.373t-.661.458q-.2,0-.661-.458t-.458-.661q0-.2.56-.814T80.7-117.16a9.762,9.762,0,0,0,1.322-2.543,14.611,14.611,0,0,0,.814-3.713v-.61l-.051.051a1.972,1.972,0,0,1-.254.1,1.284,1.284,0,0,0-.305.153.832.832,0,0,1-.458.1,3.707,3.707,0,0,0-.61.051,3.028,3.028,0,0,1-2.238-.865Z" transform="translate(241.94 -2514.781)" stroke="#000"/>
    </g>
    <g id="Group_22" data-name="Group 22" transform="translate(1056.393 415.539)">
      <path id="Path_31-2" data-name="Path 31" d="M35.7-435.694a8.855,8.855,0,0,1,2.226-4A6.174,6.174,0,0,1,42.707-442a4.9,4.9,0,0,1,2.638.742,4.763,4.763,0,0,1,1.772,1.855A4.972,4.972,0,0,1,51.28-442a4.046,4.046,0,0,1,2.638.907,3.091,3.091,0,0,1,1.154,2.432,3.066,3.066,0,0,1-.577,1.937,2.454,2.454,0,0,1-1.113.907,3.275,3.275,0,0,1-.948.165,1.817,1.817,0,0,1-1.278-.453,1.545,1.545,0,0,1-.495-1.2,2.621,2.621,0,0,1,2.061-2.6,2.081,2.081,0,0,0-1.649-.536,2.692,2.692,0,0,0-.783.082,4.316,4.316,0,0,0-2.308,2.72Q45.51-428.522,45.51-427a1.929,1.929,0,0,0,.659,1.649,2.352,2.352,0,0,0,1.443.495,4.471,4.471,0,0,0,3.009-1.36,6.871,6.871,0,0,0,2.02-3.339q.124-.412.247-.453a3.917,3.917,0,0,1,.659-.082h.165q.618,0,.618.33,0,.041-.082.453a9.106,9.106,0,0,1-2.555,4.163,6.183,6.183,0,0,1-4.41,1.813,4.749,4.749,0,0,1-4.369-2.6q-1.69,2.555-3.874,2.555h-.247a3.5,3.5,0,0,1-2.885-1.072A3.77,3.77,0,0,1,35-426.709a2.984,2.984,0,0,1,.783-2.143,2.474,2.474,0,0,1,1.855-.824,1.549,1.549,0,0,1,1.772,1.731,2.241,2.241,0,0,1-.495,1.443,2.775,2.775,0,0,1-.948.824,2.421,2.421,0,0,1-.536.206l-.124.041q0,.041.247.165t.659.289a1.616,1.616,0,0,0,.783.124,3.043,3.043,0,0,0,2.555-1.855,14.693,14.693,0,0,0,.948-2.8q.577-2.143,1.154-4.451t.659-2.72a10.049,10.049,0,0,0,.206-1.607,1.992,1.992,0,0,0-.618-1.649,2.183,2.183,0,0,0-1.4-.495,4.516,4.516,0,0,0-3.091,1.319,7.035,7.035,0,0,0-2.02,3.38q-.082.371-.206.412a3.921,3.921,0,0,1-.659.082h-.577A.686.686,0,0,1,35.7-435.694Z" transform="translate(-35 442)"/>
      <path id="Path_32-2" data-name="Path 32" d="M19.6-465.549a1.636,1.636,0,0,1,.554-1.224,1.926,1.926,0,0,1,1.282-.554,1.186,1.186,0,0,1,.874.35,1.293,1.293,0,0,1,.379.874,1.662,1.662,0,0,1-.583,1.224,1.95,1.95,0,0,1-1.282.583,1.312,1.312,0,0,1-.816-.291A1.209,1.209,0,0,1,19.6-465.549Zm-4.75,9.121a3.188,3.188,0,0,1,.262-.9,13.991,13.991,0,0,1,.7-1.486,4.81,4.81,0,0,1,1.282-1.486,2.641,2.641,0,0,1,1.748-.641,2.754,2.754,0,0,1,1.894.67,2.378,2.378,0,0,1,.787,1.807,5.65,5.65,0,0,1-.408,1.632q-.408,1.136-1.166,3.06t-1.224,3.293a4.774,4.774,0,0,0-.146.932q0,.728.5.728a1.928,1.928,0,0,0,.554-.087,1.992,1.992,0,0,0,.67-.408,3.95,3.95,0,0,0,.787-1.02,8.466,8.466,0,0,0,.728-1.719,1.2,1.2,0,0,1,.146-.408,1.068,1.068,0,0,1,.5-.058q.583,0,.583.291a3.188,3.188,0,0,1-.262.9,11.469,11.469,0,0,1-.728,1.486,4.866,4.866,0,0,1-1.311,1.457,2.936,2.936,0,0,1-1.807.641,2.74,2.74,0,0,1-1.719-.612,2.288,2.288,0,0,1-.816-1.865,2.929,2.929,0,0,1,.146-.932q.146-.437,1.253-3.322Q18.9-457.42,19.072-458a4.835,4.835,0,0,0,.2-1.136q0-.7-.5-.7h-.058a2.037,2.037,0,0,0-1.6.962,6.789,6.789,0,0,0-1.107,2.448.338.338,0,0,0-.058.087.224.224,0,0,0-.029.087q0,.029-.058.058a.223.223,0,0,1-.087.029h-.758Q14.847-456.341,14.847-456.429Z" transform="translate(7.896 472.49)"/>
    </g>
    <line id="Line_9" data-name="Line 9" x2="59" transform="translate(600.5 519.5)" fill="none" stroke="#707070" stroke-width="1" stroke-dasharray="1 2"/>
    <g id="Group_29" data-name="Group 29" transform="translate(-57 -203)">
      <g id="Mask_Group_4" data-name="Mask Group 4" transform="translate(190 83)" clip-path="url(#clip-path)" style="isolation: isolate">
        <g id="test-2" data-name="test" transform="translate(481 156.3)">
          <line id="Line_4" data-name="Line 4" x2="564" transform="translate(250 450)" fill="none" stroke="#1369a3" stroke-width="2"/>
        </g>
        <g id="Ellipse_7" data-name="Ellipse 7" transform="translate(827 437)" fill="none" stroke="#707070" stroke-width="1">
          <circle cx="28.5" cy="28.5" r="28.5" stroke="none"/>
          <circle cx="28.5" cy="28.5" r="28" fill="none"/>
        </g>
      </g>
      <g id="Group_24" data-name="Group 24" transform="translate(1026.388 542.786)">
        <path id="Path_29-3" data-name="Path 29" d="M32.617-441.795a1.107,1.107,0,0,1,.395-.811,1.332,1.332,0,0,1,.873-.395.891.891,0,0,1,.686.374,1.916,1.916,0,0,1,.333,1.185,13.992,13.992,0,0,1-.395,2.39q-.312,1.164-.561,1.912a12.348,12.348,0,0,1-.727,1.683,3.853,3.853,0,0,1-1.143,1.413,2.5,2.5,0,0,1-1.5.478,3.765,3.765,0,0,1-1.621-.333,2.171,2.171,0,0,1-1.018-.894.618.618,0,0,0-.062.083,2.523,2.523,0,0,1-2.078,1.143,4.27,4.27,0,0,1-1.039-.125,3.906,3.906,0,0,1-.977-.395,1.979,1.979,0,0,1-.769-.81,2.728,2.728,0,0,1-.291-1.309,9.387,9.387,0,0,1,.707-3.034,11.387,11.387,0,0,0,.727-2.431v-.291a.228.228,0,0,0-.083-.145.309.309,0,0,0-.229-.083h-.083a1.212,1.212,0,0,0-.873.395,3.279,3.279,0,0,0-.623.852,5.494,5.494,0,0,0-.353.873,2.026,2.026,0,0,1-.166.457.688.688,0,0,1-.333.042h-.291Q21-439.7,21-439.758a2.439,2.439,0,0,1,.166-.582,9.227,9.227,0,0,1,.478-1.06,3.345,3.345,0,0,1,.914-1.081,2.119,2.119,0,0,1,1.351-.478,1.77,1.77,0,0,1,1.372.52,1.726,1.726,0,0,1,.478,1.205,11.11,11.11,0,0,1-.686,2.244,9.171,9.171,0,0,0-.686,2.889,1.756,1.756,0,0,0,.436,1.351,1.661,1.661,0,0,0,1.1.416q.894,0,1.579-1.268l.1-.187v-.665a.432.432,0,0,1,.021-.166.357.357,0,0,0,.021-.146.773.773,0,0,1,.021-.187q.021-.083.062-.27t.062-.353a3.182,3.182,0,0,1,.125-.5,5.831,5.831,0,0,0,.166-.665q.062-.332.229-.894.6-2.369.686-2.556a.923.923,0,0,1,.894-.561.617.617,0,0,1,.54.208.867.867,0,0,1,.166.395,26.1,26.1,0,0,1-.6,2.66q-.6,2.39-.665,2.743a4.515,4.515,0,0,0-.042.727v.145a2.869,2.869,0,0,0,.062.6,1.221,1.221,0,0,0,.395.6,1.389,1.389,0,0,0,.935.332q1.475,0,2.348-2.535a12.833,12.833,0,0,0,.416-1.351,7.313,7.313,0,0,0,.249-1.247,1.89,1.89,0,0,0-.27-1.081,4.66,4.66,0,0,0-.54-.665A.814.814,0,0,1,32.617-441.795Z" transform="translate(-21 443)"/>
        <path id="Path_30-3" data-name="Path 30" d="M17.242-466.431a.825.825,0,0,1,.279-.617.971.971,0,0,1,.646-.279.6.6,0,0,1,.441.176.652.652,0,0,1,.191.441.838.838,0,0,1-.294.617.983.983,0,0,1-.646.294.662.662,0,0,1-.411-.147A.61.61,0,0,1,17.242-466.431Zm-2.395,4.6a1.607,1.607,0,0,1,.132-.455,7.054,7.054,0,0,1,.353-.749,2.425,2.425,0,0,1,.646-.749,1.332,1.332,0,0,1,.882-.323,1.389,1.389,0,0,1,.955.338,1.2,1.2,0,0,1,.4.911,2.848,2.848,0,0,1-.206.823q-.206.573-.588,1.543t-.617,1.66a2.408,2.408,0,0,0-.073.47q0,.367.25.367a.973.973,0,0,0,.279-.044,1,1,0,0,0,.338-.206,1.991,1.991,0,0,0,.4-.514,4.268,4.268,0,0,0,.367-.867.6.6,0,0,1,.073-.206.539.539,0,0,1,.25-.029q.294,0,.294.147a1.607,1.607,0,0,1-.132.455,5.786,5.786,0,0,1-.367.749,2.453,2.453,0,0,1-.661.735,1.48,1.48,0,0,1-.911.323,1.382,1.382,0,0,1-.867-.309,1.154,1.154,0,0,1-.411-.94,1.477,1.477,0,0,1,.073-.47q.073-.22.632-1.675.558-1.484.646-1.778a2.439,2.439,0,0,0,.1-.573q0-.353-.25-.353H16.8a1.027,1.027,0,0,0-.808.485,3.423,3.423,0,0,0-.558,1.234.169.169,0,0,0-.029.044.113.113,0,0,0-.015.044q0,.015-.029.029a.113.113,0,0,1-.044.015h-.382Q14.847-461.788,14.847-461.832Z" transform="translate(-0.091 469.951)"/>
      </g>
      <g id="Group_25" data-name="Group 25" transform="translate(1048.729 542.807)">
        <path id="Path_31-3" data-name="Path 31" d="M35.353-438.82a4.465,4.465,0,0,1,1.122-2.016A3.113,3.113,0,0,1,38.886-442a2.472,2.472,0,0,1,1.33.374,2.4,2.4,0,0,1,.894.935,2.507,2.507,0,0,1,2.1-1.309,2.04,2.04,0,0,1,1.33.457,1.558,1.558,0,0,1,.582,1.226,1.546,1.546,0,0,1-.291.977,1.237,1.237,0,0,1-.561.457,1.652,1.652,0,0,1-.478.083.916.916,0,0,1-.644-.229.779.779,0,0,1-.249-.6,1.321,1.321,0,0,1,1.039-1.309,1.049,1.049,0,0,0-.831-.27,1.357,1.357,0,0,0-.395.042,2.176,2.176,0,0,0-1.164,1.372,37.79,37.79,0,0,0-1.247,5.362.973.973,0,0,0,.333.831,1.186,1.186,0,0,0,.727.249,2.254,2.254,0,0,0,1.517-.686,3.464,3.464,0,0,0,1.018-1.683q.062-.208.125-.229a1.979,1.979,0,0,1,.333-.042h.083q.312,0,.312.166,0,.021-.042.229a4.591,4.591,0,0,1-1.288,2.1,3.118,3.118,0,0,1-2.224.914,2.394,2.394,0,0,1-2.2-1.309,2.386,2.386,0,0,1-1.953,1.288h-.125a1.766,1.766,0,0,1-1.455-.54A1.9,1.9,0,0,1,35-434.29a1.5,1.5,0,0,1,.395-1.081,1.248,1.248,0,0,1,.935-.416.781.781,0,0,1,.894.873,1.13,1.13,0,0,1-.249.727,1.4,1.4,0,0,1-.478.416,1.218,1.218,0,0,1-.27.1l-.062.021q0,.021.125.083t.333.146a.814.814,0,0,0,.395.062,1.534,1.534,0,0,0,1.288-.935,7.411,7.411,0,0,0,.478-1.413q.291-1.081.582-2.244t.333-1.372a5.067,5.067,0,0,0,.1-.81,1,1,0,0,0-.312-.831,1.1,1.1,0,0,0-.707-.249,2.277,2.277,0,0,0-1.559.665,3.547,3.547,0,0,0-1.018,1.7q-.042.187-.1.208a1.976,1.976,0,0,1-.333.042h-.291A.346.346,0,0,1,35.353-438.82Z" transform="translate(-35 442)"/>
        <path id="Path_32-3" data-name="Path 32" d="M17.242-466.431a.825.825,0,0,1,.279-.617.971.971,0,0,1,.646-.279.6.6,0,0,1,.441.176.652.652,0,0,1,.191.441.838.838,0,0,1-.294.617.983.983,0,0,1-.646.294.662.662,0,0,1-.411-.147A.61.61,0,0,1,17.242-466.431Zm-2.395,4.6a1.607,1.607,0,0,1,.132-.455,7.054,7.054,0,0,1,.353-.749,2.425,2.425,0,0,1,.646-.749,1.332,1.332,0,0,1,.882-.323,1.389,1.389,0,0,1,.955.338,1.2,1.2,0,0,1,.4.911,2.848,2.848,0,0,1-.206.823q-.206.573-.588,1.543t-.617,1.66a2.408,2.408,0,0,0-.073.47q0,.367.25.367a.973.973,0,0,0,.279-.044,1,1,0,0,0,.338-.206,1.991,1.991,0,0,0,.4-.514,4.268,4.268,0,0,0,.367-.867.6.6,0,0,1,.073-.206.539.539,0,0,1,.25-.029q.294,0,.294.147a1.607,1.607,0,0,1-.132.455,5.786,5.786,0,0,1-.367.749,2.453,2.453,0,0,1-.661.735,1.48,1.48,0,0,1-.911.323,1.382,1.382,0,0,1-.867-.309,1.154,1.154,0,0,1-.411-.94,1.477,1.477,0,0,1,.073-.47q.073-.22.632-1.675.558-1.484.646-1.778a2.439,2.439,0,0,0,.1-.573q0-.353-.25-.353H16.8a1.027,1.027,0,0,0-.808.485,3.423,3.423,0,0,0-.558,1.234.169.169,0,0,0-.029.044.113.113,0,0,0-.015.044q0,.015-.029.029a.113.113,0,0,1-.044.015h-.382Q14.847-461.788,14.847-461.832Z" transform="translate(-3.379 469.93)"/>
      </g>
      <g id="Group_26" data-name="Group 26" transform="translate(1087.704 531.14)">
        <g id="Rectangle_5-4" data-name="Rectangle 5" transform="translate(0.296 0.86)" fill="#fff" stroke="#d1d1d1" stroke-width="1">
          <rect width="218" height="29" rx="5" stroke="none"/>
          <rect x="0.5" y="0.5" width="217" height="28" rx="4.5" fill="none"/>
        </g>
        <text id="Weight_multiplied_by_sentiment_value" data-name="Weight multiplied by sentiment value" transform="translate(10.296 18.86)" fill="#707070" font-size="10" font-family="Roboto-Regular, Roboto"><tspan x="0" y="0">WEIGHT MULTIPLIED BY SENTIMENT VALUE</tspan></text>
      </g>
    </g>
    <g id="Group_27" data-name="Group 27" transform="translate(499.704 428.14)">
      <g id="Rectangle_5-5" data-name="Rectangle 5" transform="translate(-130.704 0.86)" fill="#fff" stroke="#d1d1d1" stroke-width="1">
        <rect width="327" height="29" rx="5" stroke="none"/>
        <rect x="0.5" y="0.5" width="326" height="28" rx="4.5" fill="none"/>
      </g>
      <text id="Total_of_weight_multiplied_by_sentiment_for_every_tweet" data-name="Total of (weight multiplied by sentiment) for every tweet" transform="translate(-120.704 18.86)" fill="#707070" font-size="10" font-family="Roboto-Regular, Roboto"><tspan x="0" y="0">TOTAL OF (WEIGHT MULTIPLIED BY SENTIMENT) FOR EVERY TWEET</tspan></text>
    </g>
    <line id="Line_10" data-name="Line 10" x2="73" transform="translate(696.5 442.5)" fill="none" stroke="#707070" stroke-width="1" stroke-dasharray="1 2"/>
    <g id="Ellipse_15" data-name="Ellipse 15" transform="translate(334 430)" fill="#fff" stroke="#000" stroke-width="2">
      <circle cx="13.5" cy="13.5" r="13.5" stroke="none"/>
      <circle cx="13.5" cy="13.5" r="12.5" fill="none"/>
    </g>
    <text id="_1" data-name="1" transform="translate(344 449)" font-size="20" font-family="DMSerifDisplay-Regular, DM Serif Display"><tspan x="0" y="0">1</tspan></text>
    <g id="Ellipse_16" data-name="Ellipse 16" transform="translate(484 581)" fill="#fff" stroke="#000" stroke-width="2">
      <circle cx="13.5" cy="13.5" r="13.5" stroke="none"/>
      <circle cx="13.5" cy="13.5" r="12.5" fill="none"/>
    </g>
    <text id="_2" data-name="2" transform="translate(492 601)" font-size="20" font-family="DMSerifDisplay-Regular, DM Serif Display"><tspan x="0" y="0">2</tspan></text>
    <g id="Group_28" data-name="Group 28" transform="translate(0 -14)">
      <g id="Group_8" data-name="Group 8" transform="translate(1114.382 390)">
        <g id="Group_6-3" data-name="Group 6" transform="translate(-824.382 105)">
          <g id="Rectangle_5-6" data-name="Rectangle 5" fill="#fff" stroke="#d1d1d1" stroke-width="1">
            <rect width="310" height="76" rx="5" stroke="none"/>
            <rect x="0.5" y="0.5" width="309" height="75" rx="4.5" fill="none"/>
          </g>
          <text id="To_calculate_the_weighted_mean_for_each_time_period_Either_a_day_hour_or_minute_Divided_by" data-name="To calculate the weighted mean for each time period
(Either a day, hour, or minute)

Divided by" transform="translate(156 19)" fill="#707070" font-size="10" font-family="Roboto-Regular, Roboto"><tspan x="-142.239" y="0">TO CALCULATE THE WEIGHTED MEAN FOR EACH TIME PERIOD</tspan><tspan x="-78.525" y="13">(EITHER A DAY, HOUR, OR MINUTE)</tspan><tspan x="0" y="26"></tspan><tspan x="-25.798" y="39">DIVIDED BY</tspan></text>
        </g>
      </g>
      <g id="Ellipse_17" data-name="Ellipse 17" transform="translate(385 536)" fill="#fff" stroke="#000" stroke-width="2">
        <circle cx="13.5" cy="13.5" r="13.5" stroke="none"/>
        <circle cx="13.5" cy="13.5" r="12.5" fill="none"/>
      </g>
      <text id="_1-2" data-name="1" transform="translate(395 555)" font-size="20" font-family="DMSerifDisplay-Regular, DM Serif Display"><tspan x="0" y="0">1</tspan></text>
      <g id="Ellipse_18" data-name="Ellipse 18" transform="translate(480 537)" fill="#fff" stroke="#000" stroke-width="2">
        <circle cx="13.5" cy="13.5" r="13.5" stroke="none"/>
        <circle cx="13.5" cy="13.5" r="12.5" fill="none"/>
      </g>
      <text id="_2-2" data-name="2" transform="translate(488 557)" font-size="20" font-family="DMSerifDisplay-Regular, DM Serif Display"><tspan x="0" y="0">2</tspan></text>
    </g>
    <line id="Line_11" data-name="Line 11" y1="45" x2="90" transform="translate(930.5 544.5)" fill="none" stroke="#707070" stroke-width="1" stroke-dasharray="1 2"/>
  </g>
</svg>
